<svg width="424" height="217" viewBox="0 0 424 217" fill="none" xmlns="http://www.w3.org/2000/svg">
<path d="M258.06 129.688V213.558H47.9319C23.9906 213.558 4.51172 194.746 4.51172 171.623C4.51172 148.5 23.9906 129.688 47.9319 129.688H258.06Z" fill="#F2F2F2"/>
<path d="M263.226 212.915C263.225 213.771 262.885 214.591 262.281 215.196C261.676 215.801 260.855 216.141 260 216.141H44.1935C32.4727 216.141 21.2319 211.485 12.944 203.197C4.6561 194.909 0 183.668 0 171.947C0 160.227 4.6561 148.986 12.944 140.698C21.2319 132.41 32.4727 127.754 44.1935 127.754H260C260.856 127.754 261.676 128.094 262.281 128.699C262.886 129.304 263.226 130.124 263.226 130.98C263.226 131.835 262.886 132.656 262.281 133.261C261.676 133.866 260.856 134.206 260 134.206H44.1935C34.1838 134.206 24.584 138.182 17.506 145.26C10.428 152.338 6.45161 161.938 6.45161 171.947C6.45161 181.957 10.428 191.557 17.506 198.635C24.584 205.713 34.1838 209.689 44.1935 209.689H260C260.855 209.69 261.676 210.03 262.281 210.635C262.885 211.239 263.225 212.06 263.226 212.915Z" fill="#4285F4"/>
<path d="M258.061 149.044H32.2545C32.0834 149.044 31.9193 148.976 31.7983 148.855C31.6774 148.734 31.6094 148.57 31.6094 148.399C31.6094 148.228 31.6774 148.064 31.7983 147.943C31.9193 147.822 32.0834 147.754 32.2545 147.754H258.061C258.232 147.754 258.396 147.822 258.517 147.943C258.638 148.064 258.706 148.228 258.706 148.399C258.706 148.57 258.638 148.734 258.517 148.855C258.396 148.976 258.232 149.044 258.061 149.044Z" fill="#CCCCCC"/>
<path d="M258.061 164.525H32.2545C32.0834 164.525 31.9193 164.457 31.7983 164.336C31.6774 164.215 31.6094 164.051 31.6094 163.88C31.6094 163.708 31.6774 163.544 31.7983 163.423C31.9193 163.302 32.0834 163.234 32.2545 163.234H258.061C258.232 163.234 258.396 163.302 258.517 163.423C258.638 163.544 258.706 163.708 258.706 163.88C258.706 164.051 258.638 164.215 258.517 164.336C258.396 164.457 258.232 164.525 258.061 164.525Z" fill="#CCCCCC"/>
<path d="M258.061 180.011H32.2545C32.0834 180.011 31.9193 179.943 31.7983 179.822C31.6774 179.701 31.6094 179.537 31.6094 179.366C31.6094 179.195 31.6774 179.031 31.7983 178.91C31.9193 178.789 32.0834 178.721 32.2545 178.721H258.061C258.232 178.721 258.396 178.789 258.517 178.91C258.638 179.031 258.706 179.195 258.706 179.366C258.706 179.537 258.638 179.701 258.517 179.822C258.396 179.943 258.232 180.011 258.061 180.011Z" fill="#CCCCCC"/>
<path d="M258.061 195.493H32.2545C32.0834 195.493 31.9193 195.425 31.7983 195.304C31.6774 195.183 31.6094 195.019 31.6094 194.848C31.6094 194.677 31.6774 194.513 31.7983 194.392C31.9193 194.271 32.0834 194.203 32.2545 194.203H258.061C258.232 194.203 258.396 194.271 258.517 194.392C258.638 194.513 258.706 194.677 258.706 194.848C258.706 195.019 258.638 195.183 258.517 195.304C258.396 195.425 258.232 195.493 258.061 195.493Z" fill="#CCCCCC"/>
<path d="M420.458 145.477L367.835 210.786L204.213 78.947C185.57 63.9257 182.206 37.0551 196.713 19.0499C211.221 1.04477 238.192 -1.38296 256.835 13.6383L420.458 145.477Z" fill="#F2F2F2"/>
<path d="M372.257 213.52C371.72 214.186 370.94 214.611 370.09 214.703C369.239 214.794 368.387 214.544 367.721 214.008L199.677 78.6064C190.55 71.2524 184.718 60.5741 183.465 48.9205C182.211 37.2669 185.638 25.5926 192.992 16.4658C200.346 7.33895 211.024 1.50728 222.678 0.253654C234.331 -0.999968 246.006 2.42715 255.133 9.78107L423.177 145.183C423.507 145.448 423.782 145.776 423.985 146.148C424.188 146.52 424.316 146.928 424.362 147.35C424.407 147.771 424.369 148.197 424.25 148.604C424.13 149.01 423.932 149.39 423.666 149.72C423.4 150.05 423.072 150.324 422.7 150.527C422.328 150.73 421.92 150.858 421.498 150.903C421.077 150.948 420.651 150.91 420.244 150.79C419.838 150.671 419.459 150.472 419.129 150.206L251.085 14.8048C247.226 11.6928 242.791 9.37158 238.035 7.97376C233.278 6.57593 228.293 6.12888 223.364 6.65815C218.434 7.18743 213.658 8.68265 209.307 11.0584C204.955 13.4342 201.115 16.6439 198.004 20.5043C194.894 24.3647 192.574 28.8001 191.178 33.5571C189.782 38.3141 189.337 43.2995 189.868 48.2285C190.4 53.1576 191.897 57.9337 194.274 62.284C196.652 66.6343 199.863 70.4736 203.725 73.5826L371.769 208.984C372.435 209.521 372.86 210.3 372.952 211.151C373.043 212.002 372.793 212.854 372.257 213.52Z" fill="#E3F2FD"/>
<path d="M408.314 160.546L232.483 18.8702C232.417 18.817 232.362 18.7514 232.321 18.677C232.281 18.6027 232.255 18.521 232.246 18.4368C232.237 18.3526 232.244 18.2674 232.268 18.1861C232.292 18.1048 232.332 18.029 232.385 17.963C232.438 17.897 232.504 17.8422 232.578 17.8016C232.652 17.761 232.734 17.7354 232.818 17.7264C232.903 17.7173 232.988 17.7249 233.069 17.7488C233.15 17.7726 233.226 17.8123 233.292 17.8654L409.123 159.541C409.189 159.594 409.244 159.66 409.285 159.734C409.326 159.809 409.351 159.89 409.36 159.975C409.37 160.059 409.362 160.144 409.338 160.226C409.314 160.307 409.275 160.383 409.221 160.449C409.168 160.515 409.103 160.57 409.028 160.61C408.954 160.651 408.872 160.677 408.788 160.686C408.703 160.695 408.618 160.687 408.537 160.663C408.455 160.639 408.38 160.599 408.314 160.546Z" fill="#CCCCCC"/>
<path d="M398.602 172.602L222.771 30.9263C222.638 30.8189 222.553 30.663 222.535 30.493C222.517 30.323 222.567 30.1528 222.674 30.0197C222.781 29.8865 222.937 29.8014 223.107 29.783C223.277 29.7647 223.447 29.8145 223.581 29.9216L399.412 171.597C399.478 171.65 399.533 171.716 399.573 171.79C399.614 171.865 399.64 171.946 399.649 172.031C399.658 172.115 399.65 172.2 399.627 172.282C399.603 172.363 399.563 172.439 399.51 172.505C399.457 172.571 399.391 172.626 399.316 172.666C399.242 172.707 399.16 172.733 399.076 172.742C398.992 172.751 398.906 172.743 398.825 172.719C398.744 172.695 398.668 172.655 398.602 172.602Z" fill="#CCCCCC"/>
<path d="M388.884 184.661L213.053 42.9854C212.92 42.8781 212.835 42.7222 212.816 42.5521C212.798 42.3819 212.848 42.2115 212.955 42.0783C213.063 41.945 213.219 41.8599 213.389 41.8416C213.559 41.8233 213.729 41.8733 213.862 41.9807L389.693 183.656C389.759 183.71 389.814 183.775 389.855 183.85C389.896 183.924 389.921 184.006 389.93 184.09C389.939 184.174 389.932 184.259 389.908 184.34C389.884 184.422 389.844 184.498 389.791 184.564C389.738 184.63 389.672 184.684 389.598 184.725C389.524 184.766 389.442 184.791 389.358 184.8C389.273 184.809 389.188 184.802 389.107 184.778C389.026 184.754 388.95 184.714 388.884 184.661Z" fill="#CCCCCC"/>
<path d="M379.173 196.718L203.342 55.0421C203.276 54.9889 203.221 54.9233 203.181 54.8489C203.14 54.7745 203.114 54.6929 203.105 54.6087C203.096 54.5244 203.104 54.4393 203.128 54.358C203.152 54.2767 203.191 54.2009 203.244 54.1349C203.298 54.0689 203.363 54.0141 203.438 53.9735C203.512 53.9329 203.593 53.9073 203.678 53.8982C203.762 53.8892 203.847 53.8968 203.928 53.9206C204.01 53.9445 204.086 53.9842 204.152 54.0373L379.983 195.713C380.049 195.766 380.104 195.832 380.144 195.906C380.185 195.98 380.211 196.062 380.22 196.146C380.229 196.231 380.221 196.316 380.198 196.397C380.174 196.479 380.134 196.555 380.081 196.621C380.028 196.687 379.962 196.742 379.887 196.782C379.813 196.823 379.731 196.848 379.647 196.857C379.563 196.866 379.477 196.859 379.396 196.835C379.315 196.811 379.239 196.771 379.173 196.718Z" fill="#CCCCCC"/>
</svg>
