<svg width="545" height="276" viewBox="0 0 545 276" fill="none" xmlns="http://www.w3.org/2000/svg">
<path d="M208.905 158.82C208.905 158.82 273.985 151.007 296.762 138.635C319.54 126.264 488.746 120.404 488.746 158.82C488.746 197.237 294.159 214.167 294.159 214.167L191.985 208.306L208.905 158.82Z" fill="#FBBEBE"/>
<path opacity="0.1" d="M208.905 158.82C208.905 158.82 273.985 151.007 296.762 138.635C319.54 126.264 488.746 120.404 488.746 158.82C488.746 197.237 294.159 214.167 294.159 214.167L191.985 208.306L208.905 158.82Z" fill="black"/>
<path d="M227.777 151.659L214.111 191.378L0 193.982V135.38C0 135.38 81.9999 116.498 147.079 156.868C147.079 156.868 223.873 147.752 227.777 151.659Z" fill="#6C63FF"/>
<path opacity="0.1" d="M227.777 151.594L214.111 191.313L0 193.918V135.316C0 135.316 81.9999 116.433 147.079 156.803C147.079 156.803 223.873 147.688 227.777 151.594Z" fill="black"/>
<path d="M238.189 175.749C238.189 175.749 311.729 137.984 359.237 152.308C406.745 166.633 473.125 141.89 480.935 150.355C488.744 158.82 499.808 249.978 406.094 255.187C312.38 260.396 232.332 239.56 232.332 239.56L238.189 175.749Z" fill="#FBBEBE"/>
<path d="M220.872 171.728C220.872 171.728 249.904 169.89 248.603 180.308C247.301 190.726 246 271.466 238.19 273.42C230.381 275.373 168.555 275.373 143.174 275.373H0V150.543C0 150.543 101.524 144.496 152.285 169.89C152.285 169.89 213.315 169.008 220.872 171.728Z" fill="#4285F4"/>
<rect x="305" width="240" height="150" fill="white"/>
<path d="M378.279 144.106C375.763 144.104 373.35 142.733 371.571 140.296C369.793 137.86 368.794 134.555 368.794 131.11C368.794 127.665 369.793 124.361 371.571 121.924C373.35 119.487 375.763 118.117 378.279 118.114L519.266 118.114C518.557 116.332 517.51 114.844 516.236 113.807C514.962 112.77 513.507 112.222 512.025 112.22L231.78 112.22C228.123 112.226 224.618 114.219 222.035 117.761C219.451 121.303 218 126.104 218 131.11C218.002 136.115 219.454 140.915 222.037 144.456C224.62 147.998 228.124 149.991 231.78 150H512.025C513.507 149.999 514.962 149.45 516.236 148.413C517.51 147.376 518.557 145.888 519.266 144.106L378.279 144.106Z" fill="#4285F4"/>
<path d="M519.455 125.275H385.409C385.204 125.274 385.007 125.162 384.862 124.963C384.717 124.764 384.636 124.495 384.636 124.214C384.636 123.933 384.717 123.663 384.862 123.464C385.007 123.266 385.204 123.154 385.409 123.153H519.455C519.66 123.153 519.858 123.265 520.003 123.464C520.148 123.662 520.23 123.932 520.23 124.214C520.23 124.495 520.148 124.765 520.003 124.964C519.858 125.163 519.66 125.275 519.455 125.275Z" fill="#CCCCCC"/>
<path d="M519.451 132.17H385.405C385.2 132.17 385.003 132.058 384.857 131.859C384.712 131.66 384.63 131.391 384.63 131.109C384.63 130.828 384.712 130.558 384.857 130.359C385.003 130.16 385.2 130.048 385.405 130.048H519.451C519.657 130.048 519.854 130.16 519.999 130.359C520.144 130.558 520.226 130.828 520.226 131.109C520.226 131.391 520.144 131.66 519.999 131.859C519.854 132.058 519.657 132.17 519.451 132.17Z" fill="#CCCCCC"/>
<path d="M519.455 139.066H385.409C385.204 139.065 385.007 138.953 384.862 138.754C384.717 138.556 384.636 138.286 384.636 138.005C384.636 137.724 384.717 137.455 384.862 137.256C385.007 137.057 385.204 136.945 385.409 136.944L519.455 136.944C519.557 136.944 519.658 136.971 519.752 137.024C519.846 137.078 519.932 137.156 520.004 137.254C520.076 137.353 520.133 137.47 520.173 137.599C520.212 137.728 520.232 137.866 520.232 138.005C520.232 138.145 520.212 138.283 520.173 138.412C520.133 138.541 520.076 138.658 520.004 138.756C519.932 138.855 519.846 138.933 519.752 138.986C519.658 139.039 519.557 139.066 519.455 139.066Z" fill="#CCCCCC"/>
<path d="M403.047 107.882C400.531 107.88 398.118 106.51 396.34 104.073C394.561 101.636 393.562 98.3317 393.562 94.8865C393.562 91.4414 394.561 88.1372 396.34 85.7003C398.118 83.2634 400.531 81.8931 403.047 81.8908H544.034C543.325 80.1085 542.278 78.6205 541.004 77.5834C539.73 76.5462 538.275 75.9981 536.793 75.9966L256.548 75.9966C252.892 76.0022 249.387 77.995 246.803 81.537C244.219 85.079 242.768 89.8805 242.768 94.8865C242.77 99.8916 244.222 104.691 246.805 108.233C249.389 111.774 252.892 113.768 256.548 113.776L536.793 113.776C538.275 113.775 539.73 113.227 541.004 112.19C542.278 111.153 543.325 109.665 544.034 107.882L403.047 107.882Z" fill="#49BBBD"/>
<path d="M544.223 89.051H410.177C409.972 89.0503 409.776 88.9382 409.631 88.7393C409.486 88.5404 409.404 88.271 409.404 87.9901C409.404 87.7091 409.486 87.4397 409.631 87.2408C409.776 87.0419 409.972 86.9299 410.177 86.9292H544.223C544.429 86.9292 544.626 87.041 544.771 87.2399C544.916 87.4389 544.998 87.7087 544.998 87.9901C544.998 88.2714 544.916 88.5413 544.771 88.7402C544.626 88.9392 544.429 89.051 544.223 89.051Z" fill="#CCCCCC"/>
<path d="M544.22 95.9465H410.174C409.968 95.9465 409.771 95.8347 409.626 95.6357C409.48 95.4368 409.399 95.1669 409.399 94.8856C409.399 94.6042 409.48 94.3344 409.626 94.1354C409.771 93.9365 409.968 93.8247 410.174 93.8247L544.22 93.8247C544.425 93.8247 544.622 93.9365 544.767 94.1354C544.913 94.3344 544.994 94.6042 544.994 94.8856C544.994 95.1669 544.913 95.4368 544.767 95.6357C544.622 95.8347 544.425 95.9465 544.22 95.9465Z" fill="#CCCCCC"/>
<path d="M544.223 102.842H410.177C409.972 102.842 409.776 102.73 409.631 102.531C409.486 102.332 409.404 102.062 409.404 101.782C409.404 101.501 409.486 101.231 409.631 101.032C409.776 100.833 409.972 100.721 410.177 100.721H544.223C544.325 100.72 544.426 100.748 544.52 100.801C544.615 100.854 544.7 100.932 544.772 101.031C544.845 101.129 544.902 101.246 544.941 101.375C544.98 101.504 545 101.642 545 101.782C545 101.921 544.98 102.059 544.941 102.188C544.902 102.317 544.845 102.434 544.772 102.533C544.7 102.631 544.615 102.709 544.52 102.762C544.426 102.816 544.325 102.843 544.223 102.842Z" fill="#CCCCCC"/>
<path d="M387.217 31.8858C384.701 31.8834 382.288 30.5132 380.509 28.0762C378.731 25.6393 377.732 22.3351 377.732 18.89C377.732 15.4448 378.731 12.1406 380.509 9.7037C382.288 7.26678 384.701 5.89655 387.217 5.89419L528.204 5.89419C527.495 4.11188 526.448 2.62396 525.174 1.5868C523.9 0.549633 522.445 0.00150816 520.963 0L240.718 0C237.061 0.00566422 233.556 1.9984 230.973 5.5404C228.389 9.08239 226.938 13.8839 226.938 18.8899C226.94 23.895 228.392 28.6948 230.975 32.2361C233.558 35.7774 237.062 37.7711 240.718 37.7799L520.963 37.7799C522.445 37.7784 523.9 37.2303 525.174 36.1931C526.448 35.1559 527.495 33.6681 528.204 31.8857L387.217 31.8858Z" fill="#49BBBD"/>
<path d="M528.393 13.0544L394.347 13.0544C394.142 13.0537 393.945 12.9416 393.8 12.7427C393.655 12.5438 393.574 12.2744 393.574 11.9935C393.574 11.7126 393.655 11.4431 393.8 11.2442C393.945 11.0453 394.142 10.9333 394.347 10.9326L528.393 10.9326C528.598 10.9326 528.796 11.0444 528.941 11.2433C529.086 11.4423 529.168 11.7121 529.168 11.9935C529.168 12.2748 529.086 12.5447 528.941 12.7436C528.796 12.9426 528.598 13.0544 528.393 13.0544Z" fill="#CCCCCC"/>
<path d="M528.389 19.9499L394.343 19.9499C394.138 19.9499 393.941 19.8381 393.795 19.6391C393.65 19.4402 393.568 19.1703 393.568 18.889C393.568 18.6076 393.65 18.3378 393.795 18.1388C393.941 17.9399 394.138 17.8281 394.343 17.8281L528.389 17.8281C528.595 17.8281 528.792 17.9399 528.937 18.1388C529.082 18.3378 529.164 18.6076 529.164 18.889C529.164 19.1703 529.082 19.4402 528.937 19.6391C528.792 19.8381 528.595 19.9499 528.389 19.9499Z" fill="#CCCCCC"/>
<path d="M528.393 26.8459L394.347 26.8459C394.142 26.8452 393.945 26.7332 393.8 26.5343C393.655 26.3354 393.574 26.0659 393.574 25.785C393.574 25.5041 393.655 25.2346 393.8 25.0357C393.945 24.8368 394.142 24.7248 394.347 24.7241L528.393 24.7241C528.495 24.7238 528.596 24.751 528.69 24.8041C528.784 24.8573 528.87 24.9354 528.942 25.0339C529.014 25.1325 529.071 25.2495 529.111 25.3784C529.15 25.5073 529.17 25.6455 529.17 25.785C529.17 25.9245 529.15 26.0627 529.111 26.1916C529.071 26.3205 529.014 26.4375 528.942 26.5361C528.87 26.6346 528.784 26.7127 528.69 26.7659C528.596 26.819 528.495 26.8462 528.393 26.8459Z" fill="#CCCCCC"/>
<path d="M391.172 69.7896C388.655 69.7872 386.243 68.417 384.464 65.98C382.685 63.5431 381.686 60.2389 381.686 56.7938C381.686 53.3486 382.685 50.0444 384.464 47.6075C386.243 45.1706 388.655 43.8004 391.172 43.798L532.159 43.798C531.45 42.0157 530.403 40.5278 529.129 39.4906C527.855 38.4534 526.4 37.9053 524.918 37.9038L244.672 37.9038C241.016 37.9095 237.511 39.9022 234.927 43.4442C232.344 46.9862 230.892 51.7877 230.893 56.7937C230.895 61.7988 232.347 66.5986 234.93 70.1399C237.513 73.6812 241.017 75.675 244.672 75.6837L524.918 75.6837C526.4 75.6822 527.855 75.1341 529.129 74.0969C530.403 73.0597 531.45 71.5719 532.159 69.7896L391.172 69.7896Z" fill="#E3F2FD"/>
<path d="M532.348 50.9582L398.302 50.9582C398.097 50.9575 397.9 50.8454 397.755 50.6465C397.61 50.4477 397.529 50.1782 397.529 49.8973C397.529 49.6164 397.61 49.3469 397.755 49.148C397.9 48.9491 398.097 48.8371 398.302 48.8364L532.348 48.8364C532.553 48.8364 532.75 48.9482 532.896 49.1471C533.041 49.3461 533.123 49.6159 533.123 49.8973C533.123 50.1786 533.041 50.4485 532.896 50.6474C532.75 50.8464 532.553 50.9582 532.348 50.9582Z" fill="#CCCCCC"/>
<path d="M532.344 57.8537L398.298 57.8537C398.092 57.8537 397.895 57.7419 397.75 57.5429C397.605 57.344 397.523 57.0742 397.523 56.7928C397.523 56.5114 397.605 56.2416 397.75 56.0426C397.895 55.8437 398.092 55.7319 398.298 55.7319L532.344 55.7319C532.549 55.7319 532.746 55.8437 532.892 56.0426C533.037 56.2416 533.119 56.5114 533.119 56.7928C533.119 57.0742 533.037 57.344 532.892 57.5429C532.746 57.7419 532.549 57.8537 532.344 57.8537Z" fill="#CCCCCC"/>
<path d="M532.348 64.7497H398.302C398.097 64.749 397.9 64.637 397.755 64.4381C397.61 64.2392 397.529 63.9697 397.529 63.6888C397.529 63.4079 397.61 63.1384 397.755 62.9395C397.9 62.7407 398.097 62.6286 398.302 62.6279L532.348 62.6279C532.45 62.6276 532.551 62.6548 532.645 62.7079C532.739 62.7611 532.825 62.8392 532.897 62.9377C532.969 63.0363 533.026 63.1533 533.065 63.2822C533.104 63.4111 533.124 63.5493 533.124 63.6888C533.124 63.8283 533.104 63.9665 533.065 64.0954C533.026 64.2243 532.969 64.3413 532.897 64.4399C532.825 64.5384 532.739 64.6165 532.645 64.6697C532.551 64.7228 532.45 64.75 532.348 64.7497Z" fill="#CCCCCC"/>
</svg>
