<svg viewBox="0 0 24 24" fill="none" xmlns="http://www.w3.org/2000/svg">
<g clip-path="url(#clip0_4781_18982)">
<path d="M12 23C17.5196 23 22 18.4998 22 12.9559C22 9.57826 20.3627 6.65364 17.8333 4.82205C17.4019 4.48725 16.8432 4.60542 16.598 4.9993C16.3529 5.41289 16.4803 5.8757 16.8823 6.18097C18.9607 7.67774 20.3333 10.1494 20.3333 12.9559C20.3333 17.584 16.6078 21.326 12 21.326C7.39215 21.326 3.66667 17.584 3.66667 12.9559C3.66667 8.95788 6.42157 5.65907 10.1078 4.80236V6.22036C10.1078 6.91951 10.5882 7.09676 11.1274 6.72257L14.2549 4.51679C14.6961 4.20168 14.7058 3.72901 14.2549 3.40405L11.1372 1.19827C10.5882 0.814232 10.1078 0.991481 10.1078 1.70048V3.09879C5.5196 3.96534 2 8.04209 2 12.9559C2 18.4998 6.48039 23 12 23Z" fill="currentColor"/>
</g>
</svg>
