<svg viewBox="0 0 24 24" fill="none" xmlns="http://www.w3.org/2000/svg">
<g clip-path="url(#clip0_4767_18973)">
<path d="M14.3428 24C15.1675 24 15.7517 23.2897 16.1757 22.1899L23.6792 2.58902C23.8854 2.06205 24 1.59236 24 1.20286C24 0.458228 23.5418 0 22.7971 0C22.4077 0 21.938 0.114563 21.411 0.320766L1.70692 7.87016C0.74463 8.23674 0 8.82099 0 9.65727C0 10.7113 0.801909 11.0663 1.90166 11.3986L8.08782 13.2774C8.82099 13.5065 9.2334 13.4835 9.72601 13.0253L22.2931 1.28305C22.442 1.14558 22.6138 1.16849 22.7284 1.27159C22.843 1.38616 22.8544 1.55799 22.7169 1.70692L11.0205 14.3198C10.5737 14.7895 10.5394 15.179 10.757 15.9465L12.5786 21.9952C12.9222 23.1522 13.2774 24 14.3428 24Z" fill="currentColor"/>
</g>
</svg>
