<svg width="253" height="56" viewBox="0 0 253 56" fill="none" xmlns="http://www.w3.org/2000/svg">
<path d="M155.119 52.9726C153.402 52.9715 151.755 52.288 150.541 51.0725C149.327 49.857 148.645 48.2089 148.645 46.4905C148.645 44.7721 149.327 43.124 150.541 41.9085C151.755 40.6929 153.402 40.0095 155.119 40.0083H251.354C250.87 39.1193 250.155 38.3772 249.285 37.8598C248.416 37.3425 247.423 37.0691 246.411 37.0684L55.1227 37.0684C52.627 37.0712 50.2345 38.0651 48.4709 39.8318C46.7073 41.5986 45.7168 43.9935 45.717 46.4905C45.7183 48.9869 46.7093 51.381 48.4726 53.1474C50.2359 54.9137 52.6275 55.9082 55.1227 55.9126L246.411 55.9126C247.423 55.9118 248.416 55.6384 249.285 55.1211C250.155 54.6038 250.87 53.8616 251.354 52.9726L155.119 52.9726Z" fill="#4285F4"/>
<path d="M251.482 43.5795H159.986C159.846 43.5792 159.712 43.5233 159.613 43.4241C159.514 43.3249 159.458 43.1905 159.458 43.0504C159.458 42.9103 159.514 42.7759 159.613 42.6767C159.712 42.5775 159.846 42.5216 159.986 42.5212H251.482C251.623 42.5212 251.757 42.577 251.856 42.6762C251.955 42.7755 252.011 42.91 252.011 43.0504C252.011 43.1907 251.955 43.3253 251.856 43.4246C251.757 43.5238 251.623 43.5795 251.482 43.5795Z" fill="#CCCCCC"/>
<path d="M251.481 47.0188H159.984C159.844 47.0188 159.71 46.963 159.61 46.8638C159.511 46.7645 159.456 46.6299 159.456 46.4896C159.456 46.3493 159.511 46.2147 159.61 46.1154C159.71 46.0162 159.844 45.9604 159.984 45.9604L251.481 45.9604C251.621 45.9604 251.756 46.0162 251.855 46.1154C251.954 46.2147 252.01 46.3493 252.01 46.4896C252.01 46.6299 251.954 46.7645 251.855 46.8638C251.756 46.963 251.621 47.0188 251.481 47.0188Z" fill="#CCCCCC"/>
<path d="M251.482 50.4597H159.986C159.846 50.4593 159.712 50.4035 159.613 50.3043C159.514 50.2051 159.458 50.0706 159.458 49.9305C159.458 49.7904 159.514 49.656 159.613 49.5568C159.712 49.4576 159.846 49.4017 159.986 49.4014H251.482C251.552 49.4012 251.621 49.4148 251.685 49.4413C251.749 49.4678 251.808 49.5067 251.857 49.5559C251.906 49.6051 251.945 49.6634 251.972 49.7277C251.999 49.792 252.012 49.8609 252.012 49.9305C252.012 50.0001 251.999 50.069 251.972 50.1333C251.945 50.1976 251.906 50.256 251.857 50.3051C251.808 50.3543 251.749 50.3932 251.685 50.4198C251.621 50.4463 251.552 50.4598 251.482 50.4597Z" fill="#CCCCCC"/>
<path d="M131.534 34.9043C129.816 34.9031 128.17 34.2196 126.955 33.0041C125.741 31.7886 125.059 30.1405 125.059 28.4221C125.059 26.7037 125.741 25.0556 126.955 23.8401C128.17 22.6246 129.816 21.9411 131.534 21.94L227.768 21.94C227.284 21.051 226.57 20.3088 225.7 19.7915C224.83 19.2742 223.837 19.0008 222.825 19L31.5372 19C29.0416 19.0028 26.6491 19.9968 24.8855 21.7635C23.1218 23.5302 22.1313 25.9251 22.1316 28.4221C22.1329 30.9186 23.1239 33.3126 24.8872 35.079C26.6505 36.8454 29.042 37.8398 31.5372 37.8442L222.825 37.8442C223.837 37.8435 224.83 37.5701 225.7 37.0527C226.57 36.5354 227.284 35.7933 227.768 34.9043L131.534 34.9043Z" fill="#49BBBD"/>
<path d="M227.897 25.5112L136.4 25.5112C136.26 25.5109 136.126 25.4549 136.027 25.3557C135.928 25.2565 135.873 25.1221 135.873 24.982C135.873 24.8419 135.928 24.7075 136.027 24.6083C136.126 24.5091 136.26 24.4532 136.4 24.4529L227.897 24.4529C228.037 24.4529 228.172 24.5086 228.271 24.6079C228.37 24.7071 228.426 24.8417 228.426 24.982C228.426 25.1224 228.37 25.257 228.271 25.3562C228.172 25.4554 228.037 25.5112 227.897 25.5112Z" fill="#CCCCCC"/>
<path d="M227.895 28.9504L136.399 28.9504C136.259 28.9504 136.124 28.8946 136.025 28.7954C135.926 28.6962 135.87 28.5616 135.87 28.4212C135.87 28.2809 135.926 28.1463 136.025 28.0471C136.124 27.9478 136.259 27.8921 136.399 27.8921L227.895 27.8921C228.036 27.8921 228.17 27.9478 228.269 28.0471C228.369 28.1463 228.424 28.2809 228.424 28.4212C228.424 28.5616 228.369 28.6962 228.269 28.7954C228.17 28.8946 228.036 28.9504 227.895 28.9504Z" fill="#CCCCCC"/>
<path d="M227.897 32.3913H136.4C136.26 32.391 136.126 32.3351 136.027 32.2359C135.928 32.1367 135.873 32.0023 135.873 31.8622C135.873 31.722 135.928 31.5876 136.027 31.4884C136.126 31.3892 136.26 31.3333 136.4 31.333L227.897 31.333C227.966 31.3328 228.035 31.3464 228.1 31.3729C228.164 31.3994 228.222 31.4384 228.272 31.4875C228.321 31.5367 228.36 31.5951 228.387 31.6594C228.413 31.7236 228.427 31.7926 228.427 31.8622C228.427 31.9318 228.413 32.0007 228.387 32.065C228.36 32.1292 228.321 32.1876 228.272 32.2368C228.222 32.2859 228.164 32.3249 228.1 32.3514C228.035 32.3779 227.966 32.3915 227.897 32.3913Z" fill="#CCCCCC"/>
<path d="M109.545 15.9043C107.828 15.9031 106.181 15.2196 104.967 14.0041C103.753 12.7886 103.071 11.1405 103.071 9.42211C103.071 7.70371 103.753 6.05562 104.967 4.8401C106.181 3.62459 107.828 2.94114 109.545 2.93996L205.78 2.93996C205.296 2.05096 204.581 1.3088 203.711 0.791478C202.842 0.274151 201.849 0.000752253 200.837 0L9.5487 0C7.05303 0.00282525 4.66056 0.996783 2.89694 2.76349C1.13332 4.5302 0.142823 6.92513 0.143066 9.42209C0.144363 11.9186 1.13536 14.3126 2.89864 16.079C4.66193 17.8454 7.05351 18.8398 9.5487 18.8442L200.837 18.8442C201.849 18.8435 202.842 18.5701 203.711 18.0527C204.581 17.5354 205.296 16.7933 205.78 15.9043L109.545 15.9043Z" fill="#E3F2FD"/>
<path d="M205.908 6.51119L114.412 6.51119C114.272 6.51085 114.138 6.45495 114.039 6.35575C113.94 6.25655 113.884 6.12215 113.884 5.98203C113.884 5.8419 113.94 5.70751 114.039 5.60831C114.138 5.50911 114.272 5.45322 114.412 5.45288L205.908 5.45288C206.049 5.45288 206.183 5.50862 206.282 5.60786C206.381 5.7071 206.437 5.84168 206.437 5.98203C206.437 6.12237 206.381 6.25696 206.282 6.35619C206.183 6.45543 206.049 6.51119 205.908 6.51119Z" fill="#CCCCCC"/>
<path d="M205.907 9.9504L114.41 9.9504C114.27 9.9504 114.136 9.89464 114.037 9.7954C113.937 9.69617 113.882 9.56158 113.882 9.42124C113.882 9.28089 113.937 9.14631 114.037 9.04707C114.136 8.94783 114.27 8.89209 114.41 8.89209L205.907 8.89209C206.047 8.89209 206.182 8.94783 206.281 9.04707C206.38 9.14631 206.436 9.28089 206.436 9.42124C206.436 9.56158 206.38 9.69617 206.281 9.7954C206.182 9.89464 206.047 9.9504 205.907 9.9504Z" fill="#CCCCCC"/>
<path d="M205.908 13.3913L114.412 13.3913C114.272 13.391 114.138 13.3351 114.039 13.2359C113.94 13.1367 113.884 13.0023 113.884 12.8622C113.884 12.722 113.94 12.5876 114.039 12.4884C114.138 12.3892 114.272 12.3333 114.412 12.333L205.908 12.333C205.978 12.3328 206.047 12.3464 206.111 12.3729C206.175 12.3994 206.234 12.4384 206.283 12.4875C206.332 12.5367 206.371 12.5951 206.398 12.6594C206.425 12.7236 206.438 12.7926 206.438 12.8622C206.438 12.9318 206.425 13.0007 206.398 13.065C206.371 13.1292 206.332 13.1876 206.283 13.2368C206.234 13.2859 206.175 13.3249 206.111 13.3514C206.047 13.3779 205.978 13.3915 205.908 13.3913Z" fill="#CCCCCC"/>
</svg>
