<svg viewBox="0 0 28 28" fill="none" xmlns="http://www.w3.org/2000/svg">
<path fill-rule="evenodd" clip-rule="evenodd" d="M8.75594 13.453L10.3412 8.42536H12.3918L13.9771 13.453L18.733 15.1288V17.2965L13.9771 18.9724L12.3918 24H10.3412L8.75594 18.9724L4 17.2965V15.1288L8.75594 13.453ZM11.3665 12.3994L10.6356 14.7174L9.95209 15.44L7.75933 16.2127L9.95209 16.9853L10.6356 17.7079L11.3665 20.0259L12.0974 17.7079L12.781 16.9853L14.9737 16.2127L12.781 15.44L12.0974 14.7174L11.3665 12.3994Z" fill="currentColor"/>
<path fill-rule="evenodd" clip-rule="evenodd" d="M18.5541 6.67383L19.3972 4H20.6275L21.4707 6.67383L24 7.5651V8.86571L21.4707 9.75698L20.6275 12.4308H19.3972L18.5541 9.75698L16.0248 8.86571V7.5651L18.5541 6.67383Z" fill="currentColor"/>
</svg>
