<svg viewBox="0 0 275 325" fill="none" xmlns="http://www.w3.org/2000/svg">
<path d="M42.9825 161.226L3.60965 122.342L101.028 23.6988C112.128 12.4596 129.99 12.0373 140.845 22.7573C151.7 33.4773 151.501 51.3435 140.401 62.5826L42.9825 161.226Z" fill="#F2F2F2"/>
<path d="M1.51732 125.067C1.1159 124.67 0.888431 124.13 0.884907 123.565C0.881381 123.001 1.10208 122.458 1.49851 122.057L101.55 20.7474C106.984 15.2451 114.381 12.1268 122.114 12.0785C129.847 12.0301 137.283 15.0558 142.785 20.4897C148.287 25.9237 151.405 33.3209 151.454 41.054C151.502 48.7871 148.476 56.2227 143.042 61.725L42.9914 163.034C42.5948 163.436 42.0548 163.663 41.4904 163.667C40.9259 163.67 40.3832 163.45 39.9815 163.053C39.5799 162.656 39.3523 162.116 39.3488 161.552C39.3452 160.988 39.5661 160.445 39.9627 160.043L140.014 58.7339C144.654 54.0348 147.238 47.6848 147.197 41.0806C147.156 34.4764 144.493 28.1591 139.794 23.5184C135.095 18.8777 128.745 16.2938 122.14 16.3351C115.536 16.3763 109.219 19.0394 104.578 23.7384L4.52719 125.048C4.13043 125.449 3.59056 125.677 3.02616 125.68C2.46177 125.684 1.91906 125.463 1.51732 125.067Z" fill="#4285F4"/>
<path d="M33.9001 152.249L138.587 46.2457C138.667 46.1653 138.775 46.1198 138.888 46.1191C139 46.1184 139.109 46.1626 139.189 46.2419C139.27 46.3212 139.315 46.4292 139.316 46.5421C139.317 46.655 139.272 46.7636 139.193 46.8439L34.5059 152.848C34.4265 152.928 34.3185 152.973 34.2056 152.974C34.0928 152.975 33.9842 152.931 33.9039 152.851C33.8236 152.772 33.778 152.664 33.7773 152.551C33.7766 152.438 33.8208 152.33 33.9001 152.249Z" fill="#CCCCCC"/>
<path d="M26.6345 145.074L131.322 39.0699C131.401 38.9896 131.509 38.944 131.622 38.9433C131.735 38.9426 131.843 38.9868 131.924 39.0661C132.004 39.1455 132.05 39.2534 132.05 39.3663C132.051 39.4792 132.007 39.5878 131.927 39.6681L27.2402 145.672C27.1609 145.752 27.0529 145.798 26.94 145.798C26.8271 145.799 26.7186 145.755 26.6383 145.676C26.5579 145.596 26.5124 145.488 26.5117 145.375C26.511 145.262 26.5552 145.154 26.6345 145.074Z" fill="#CCCCCC"/>
<path d="M19.3611 137.892L124.048 31.8882C124.128 31.8079 124.236 31.7624 124.348 31.7617C124.461 31.761 124.57 31.8052 124.65 31.8845C124.731 31.9638 124.776 32.0718 124.777 32.1847C124.778 32.2976 124.733 32.4061 124.654 32.4865L19.9668 138.49C19.8875 138.57 19.7795 138.616 19.6666 138.617C19.5537 138.617 19.4451 138.573 19.3648 138.494C19.2845 138.415 19.239 138.307 19.2383 138.194C19.2376 138.081 19.2817 137.972 19.3611 137.892Z" fill="#CCCCCC"/>
<path d="M12.0954 130.714L116.783 24.7105C116.862 24.6302 116.97 24.5847 117.083 24.584C117.196 24.5833 117.304 24.6274 117.385 24.7068C117.465 24.7861 117.51 24.8941 117.511 25.007C117.512 25.1199 117.468 25.2284 117.388 25.3087L12.7012 131.312C12.6218 131.393 12.5139 131.438 12.401 131.439C12.2881 131.44 12.1795 131.396 12.0992 131.316C12.0189 131.237 11.9734 131.129 11.9726 131.016C11.9719 130.903 12.0161 130.795 12.0954 130.714Z" fill="#CCCCCC"/>
<path d="M242.82 283.795L190.745 302.514L143.848 172.047C138.505 157.182 145.838 140.889 160.195 135.728C174.551 130.568 190.58 138.463 195.923 153.328L242.82 283.795Z" fill="#F2F2F2"/>
<path d="M192.291 305.569C191.76 305.759 191.174 305.731 190.664 305.491C190.153 305.25 189.759 304.817 189.568 304.286L141.404 170.293C138.788 163.016 139.17 154.997 142.466 148.002C145.762 141.006 151.703 135.607 158.98 132.991C166.257 130.375 174.276 130.757 181.272 134.053C188.267 137.349 193.667 143.29 196.283 150.567L244.447 284.559C244.542 284.822 244.584 285.102 244.57 285.381C244.557 285.66 244.489 285.934 244.37 286.187C244.251 286.44 244.083 286.667 243.876 286.855C243.669 287.043 243.427 287.189 243.164 287.283C242.901 287.378 242.622 287.42 242.343 287.406C242.063 287.393 241.79 287.325 241.537 287.206C241.284 287.086 241.057 286.918 240.869 286.711C240.681 286.504 240.536 286.262 240.441 285.999L192.277 152.007C191.172 148.928 189.471 146.098 187.271 143.677C185.072 141.255 182.417 139.291 179.458 137.897C176.5 136.502 173.295 135.704 170.028 135.548C166.761 135.392 163.495 135.881 160.417 136.987C157.338 138.094 154.508 139.796 152.088 141.996C149.668 144.197 147.705 146.852 146.312 149.811C144.918 152.771 144.121 155.975 143.966 159.243C143.811 162.51 144.302 165.776 145.41 168.853L193.574 302.846C193.764 303.377 193.736 303.962 193.496 304.473C193.255 304.983 192.822 305.378 192.291 305.569Z" fill="#E3F2FD"/>
<path d="M230.801 288.108L180.405 147.907C180.386 147.854 180.378 147.798 180.381 147.742C180.383 147.687 180.397 147.632 180.421 147.581C180.445 147.531 180.478 147.485 180.52 147.448C180.561 147.41 180.609 147.381 180.662 147.362C180.715 147.343 180.77 147.335 180.826 147.338C180.882 147.34 180.937 147.354 180.987 147.378C181.038 147.402 181.083 147.435 181.121 147.476C181.159 147.518 181.188 147.566 181.207 147.619L231.603 287.82C231.622 287.873 231.63 287.929 231.627 287.985C231.625 288.04 231.611 288.095 231.587 288.146C231.563 288.197 231.53 288.242 231.489 288.28C231.447 288.317 231.399 288.346 231.346 288.365C231.293 288.384 231.238 288.393 231.182 288.39C231.126 288.387 231.071 288.374 231.02 288.35C230.97 288.326 230.924 288.292 230.887 288.251C230.849 288.209 230.82 288.161 230.801 288.108Z" fill="#CCCCCC"/>
<path d="M221.184 291.567L170.788 151.365C170.75 151.259 170.756 151.142 170.804 151.04C170.852 150.938 170.939 150.859 171.045 150.821C171.151 150.783 171.268 150.789 171.37 150.837C171.472 150.885 171.551 150.971 171.589 151.077L221.985 291.279C222.004 291.331 222.013 291.387 222.01 291.443C222.007 291.499 221.994 291.554 221.97 291.604C221.946 291.655 221.913 291.7 221.871 291.738C221.83 291.776 221.781 291.805 221.729 291.824C221.676 291.843 221.62 291.851 221.564 291.848C221.508 291.846 221.454 291.832 221.403 291.808C221.352 291.784 221.307 291.751 221.27 291.709C221.232 291.668 221.203 291.619 221.184 291.567Z" fill="#CCCCCC"/>
<path d="M211.575 295.026L161.179 154.825C161.141 154.718 161.146 154.601 161.194 154.499C161.242 154.397 161.329 154.318 161.435 154.28C161.542 154.242 161.659 154.248 161.761 154.296C161.863 154.344 161.942 154.431 161.98 154.537L212.376 294.738C212.395 294.791 212.403 294.847 212.401 294.902C212.398 294.958 212.384 295.013 212.36 295.064C212.337 295.114 212.303 295.16 212.262 295.197C212.22 295.235 212.172 295.264 212.119 295.283C212.067 295.302 212.011 295.31 211.955 295.307C211.899 295.305 211.845 295.291 211.794 295.267C211.743 295.243 211.698 295.21 211.66 295.168C211.623 295.127 211.594 295.079 211.575 295.026Z" fill="#CCCCCC"/>
<path d="M201.958 298.479L151.562 158.278C151.543 158.225 151.534 158.169 151.537 158.114C151.54 158.058 151.553 158.003 151.577 157.952C151.601 157.902 151.635 157.856 151.676 157.819C151.717 157.781 151.766 157.752 151.818 157.733C151.871 157.714 151.927 157.706 151.982 157.709C152.038 157.711 152.093 157.725 152.144 157.749C152.194 157.773 152.24 157.806 152.277 157.848C152.315 157.889 152.344 157.937 152.363 157.99L202.759 298.191C202.778 298.244 202.786 298.3 202.784 298.356C202.781 298.412 202.767 298.466 202.744 298.517C202.72 298.568 202.686 298.613 202.645 298.651C202.603 298.688 202.555 298.717 202.502 298.736C202.45 298.755 202.394 298.764 202.338 298.761C202.282 298.758 202.227 298.745 202.177 298.721C202.126 298.697 202.081 298.663 202.043 298.622C202.006 298.58 201.976 298.532 201.958 298.479Z" fill="#CCCCCC"/>
</svg>
